<svg width="26" height="26" viewBox="0 0 26 26" fill="none" xmlns="http://www.w3.org/2000/svg">
<g clip-path="url(#clip0_146_335)">
<path d="M25.7059 12.9407C25.7059 5.79532 19.9491 0.00317383 12.8488 0.00317383C5.74519 0.00478097 -0.0115967 5.79532 -0.0115967 12.9423C-0.0115967 19.3982 4.6909 24.75 10.8366 25.7207V16.6805H7.57412V12.9423H10.8398V10.0896C10.8398 6.848 12.7604 5.05764 15.6966 5.05764C17.1045 5.05764 18.575 5.30996 18.575 5.30996V8.4921H16.9534C15.3575 8.4921 14.8593 9.49014 14.8593 10.5139V12.9407H18.4239L17.855 16.6789H14.8577V25.7191C21.0034 24.7484 25.7059 19.3966 25.7059 12.9407Z" fill="white"/>
</g>
<defs>
<clipPath id="clip0_146_335">
<rect width="25.7143" height="25.7143" fill="white"/>
</clipPath>
</defs>
</svg>
