<svg width="26" height="26" viewBox="0 0 26 26" fill="none" xmlns="http://www.w3.org/2000/svg">
<g clip-path="url(#clip0_146_331)">
<path d="M21.9115 21.916H18.1037V15.9492C18.1037 14.5264 18.0747 12.6953 16.1194 12.6953C14.134 12.6953 13.8308 14.2435 13.8308 15.8442V21.916H10.023V9.64603H13.6808V11.3185H13.7301C14.2412 10.3542 15.484 9.33639 17.3408 9.33639C21.199 9.33639 21.9126 11.8757 21.9126 15.181L21.9115 21.916ZM5.72224 7.9671C5.43167 7.96753 5.14388 7.91057 4.87538 7.79951C4.60687 7.68844 4.36294 7.52545 4.15758 7.31989C3.95222 7.11433 3.78946 6.87024 3.67866 6.60163C3.56786 6.33302 3.51118 6.04517 3.51189 5.7546C3.5121 5.31722 3.642 4.88973 3.88517 4.52618C4.12834 4.16263 4.47386 3.87935 4.87803 3.71217C5.28219 3.54499 5.72686 3.50141 6.15579 3.58695C6.58473 3.67248 6.97866 3.88329 7.28779 4.19272C7.59691 4.50214 7.80734 4.89628 7.89246 5.3253C7.97758 5.75431 7.93357 6.19894 7.766 6.60294C7.59842 7.00695 7.31481 7.35219 6.95103 7.595C6.58724 7.83782 6.15962 7.96731 5.72224 7.9671ZM7.63153 21.916H3.81296V9.64603H7.63153V21.916ZM23.8165 0.00317383H1.90153C0.8526 0.00317383 0.00402832 0.83246 0.00402832 1.85567V23.865C0.00402832 24.8892 0.8526 25.7175 1.90153 25.7175H23.8133C24.8612 25.7175 25.7183 24.8892 25.7183 23.865V1.85567C25.7183 0.83246 24.8612 0.00317383 23.8133 0.00317383H23.8165Z" fill="white"/>
</g>
<defs>
<clipPath id="clip0_146_331">
<rect width="25.7143" height="25.7143" fill="white"/>
</clipPath>
</defs>
</svg>
