<svg width="24" height="24" viewBox="0 0 24 24" fill="none" xmlns="http://www.w3.org/2000/svg">
<path fill-rule="evenodd" clip-rule="evenodd" d="M12 2.00003C6.47717 2.00003 2 6.47716 2 12C2 17.5228 6.47717 22 12 22C17.5229 22 22 17.5229 22 12C22 6.47716 17.5229 2.00003 12 2.00003ZM12 20C7.58881 20 4.00002 16.4112 4.00002 12C4.00002 7.5888 7.58877 4.00005 12 4.00005C16.4113 4.00005 20 7.5888 20 12C20 16.4112 16.4113 20 12 20ZM13.2522 8.00003C13.2522 8.72509 12.7243 9.25005 12.0102 9.25005C11.2671 9.25005 10.7522 8.72505 10.7522 7.98616C10.7522 7.276 11.2811 6.75006 12.0102 6.75006C12.7243 6.75006 13.2522 7.276 13.2522 8.00003ZM11.0022 11H13.0022V17H11.0022V11Z" fill="black"/>
</svg>
