<svg width="30" height="30" viewBox="0 0 30 30" fill="none" xmlns="http://www.w3.org/2000/svg">
<path d="M14.9971 8.99428C11.6719 8.99428 8.9883 11.6779 8.9883 15.0031C8.9883 18.3283 11.6719 21.0119 14.9971 21.0119C18.3223 21.0119 21.0059 18.3283 21.0059 15.0031C21.0059 11.6779 18.3223 8.99428 14.9971 8.99428ZM14.9971 18.9083C12.8467 18.9083 11.0918 17.1535 11.0918 15.0031C11.0918 12.8527 12.8467 11.0978 14.9971 11.0978C17.1475 11.0978 18.9024 12.8527 18.9024 15.0031C18.9024 17.1535 17.1475 18.9083 14.9971 18.9083ZM21.252 7.3478C20.4756 7.3478 19.8486 7.97475 19.8486 8.75112C19.8486 9.52748 20.4756 10.1544 21.252 10.1544C22.0283 10.1544 22.6553 9.53041 22.6553 8.75112C22.6555 8.56676 22.6194 8.38418 22.5489 8.21382C22.4785 8.04345 22.3751 7.88866 22.2448 7.7583C22.1144 7.62795 21.9596 7.52459 21.7893 7.45415C21.6189 7.3837 21.4363 7.34756 21.252 7.3478ZM26.71 15.0031C26.71 13.3859 26.7246 11.7833 26.6338 10.1691C26.543 8.29408 26.1153 6.63002 24.7442 5.25893C23.3701 3.8849 21.709 3.4601 19.834 3.36928C18.2168 3.27846 16.6143 3.29311 15 3.29311C13.3828 3.29311 11.7803 3.27846 10.166 3.36928C8.29103 3.4601 6.62697 3.88783 5.25588 5.25893C3.88185 6.63295 3.45705 8.29408 3.36623 10.1691C3.27541 11.7863 3.29006 13.3888 3.29006 15.0031C3.29006 16.6173 3.27541 18.2228 3.36623 19.8371C3.45705 21.7121 3.88478 23.3761 5.25588 24.7472C6.6299 26.1212 8.29103 26.546 10.166 26.6369C11.7832 26.7277 13.3858 26.713 15 26.713C16.6172 26.713 18.2197 26.7277 19.834 26.6369C21.709 26.546 23.3731 26.1183 24.7442 24.7472C26.1182 23.3732 26.543 21.7121 26.6338 19.8371C26.7276 18.2228 26.71 16.6203 26.71 15.0031ZM24.1319 21.9113C23.918 22.4445 23.6602 22.8429 23.2471 23.2531C22.834 23.6662 22.4385 23.924 21.9053 24.1378C20.3643 24.7501 16.7051 24.6124 14.9971 24.6124C13.2891 24.6124 9.62697 24.7501 8.08595 24.1408C7.55275 23.9269 7.15431 23.6691 6.74416 23.256C6.33107 22.8429 6.07326 22.4474 5.85939 21.9142C5.25002 20.3703 5.38771 16.7111 5.38771 15.0031C5.38771 13.2951 5.25002 9.63295 5.85939 8.09194C6.07326 7.55873 6.33107 7.1603 6.74416 6.75014C7.15724 6.33998 7.55275 6.07924 8.08595 5.86537C9.62697 5.256 13.2891 5.39369 14.9971 5.39369C16.7051 5.39369 20.3672 5.256 21.9082 5.86537C22.4414 6.07924 22.8399 6.33705 23.25 6.75014C23.6631 7.16323 23.9209 7.55873 24.1348 8.09194C24.7442 9.63295 24.6065 13.2951 24.6065 15.0031C24.6065 16.7111 24.7442 20.3703 24.1319 21.9113Z" fill="white"/>
</svg>
