<svg width="24" height="24" viewBox="0 0 24 24" fill="none" xmlns="http://www.w3.org/2000/svg">
<path d="M4 20C3.45 20 2.97933 19.8043 2.588 19.413C2.19667 19.0217 2.00067 18.5507 2 18V6C2 5.45 2.196 4.97933 2.588 4.588C2.98 4.19667 3.45067 4.00067 4 4H20C20.55 4 21.021 4.196 21.413 4.588C21.805 4.98 22.0007 5.45067 22 6V18C22 18.55 21.8043 19.021 21.413 19.413C21.0217 19.805 20.5507 20.0007 20 20H4ZM7 16H13C13.2833 16 13.521 15.904 13.713 15.712C13.905 15.52 14.0007 15.2827 14 15C13.9993 14.7173 13.9033 14.48 13.712 14.288C13.5207 14.096 13.2833 14 13 14H7C6.71667 14 6.47933 14.096 6.288 14.288C6.09667 14.48 6.00067 14.7173 6 15C5.99933 15.2827 6.09533 15.5203 6.288 15.713C6.48067 15.9057 6.718 16.0013 7 16ZM11 12H17C17.2833 12 17.521 11.904 17.713 11.712C17.905 11.52 18.0007 11.2827 18 11C17.9993 10.7173 17.9033 10.48 17.712 10.288C17.5207 10.096 17.2833 10 17 10H11C10.7167 10 10.4793 10.096 10.288 10.288C10.0967 10.48 10.0007 10.7173 10 11C9.99933 11.2827 10.0953 11.5203 10.288 11.713C10.4807 11.9057 10.718 12.0013 11 12ZM7 12C7.28333 12 7.521 11.904 7.713 11.712C7.905 11.52 8.00067 11.2827 8 11C7.99933 10.7173 7.90333 10.48 7.712 10.288C7.52067 10.096 7.28333 10 7 10C6.71667 10 6.47933 10.096 6.288 10.288C6.09667 10.48 6.00067 10.7173 6 11C5.99933 11.2827 6.09533 11.5203 6.288 11.713C6.48067 11.9057 6.718 12.0013 7 12ZM17 16C17.2833 16 17.521 15.904 17.713 15.712C17.905 15.52 18.0007 15.2827 18 15C17.9993 14.7173 17.9033 14.48 17.712 14.288C17.5207 14.096 17.2833 14 17 14C16.7167 14 16.4793 14.096 16.288 14.288C16.0967 14.48 16.0007 14.7173 16 15C15.9993 15.2827 16.0953 15.5203 16.288 15.713C16.4807 15.9057 16.718 16.0013 17 16Z" fill="black"/>
</svg>
