<svg width="24" height="24" viewBox="0 0 24 24" fill="none" xmlns="http://www.w3.org/2000/svg">
<path d="M6.4 19H8C8.28333 19 8.521 19.096 8.713 19.288C8.905 19.48 9.00067 19.7173 9 20C8.99933 20.2827 8.90333 20.5203 8.712 20.713C8.52067 20.9057 8.28333 21.0013 8 21H4C3.71667 21 3.47933 20.904 3.288 20.712C3.09667 20.52 3.00067 20.2827 3 20V16C3 15.7167 3.096 15.4793 3.288 15.288C3.48 15.0967 3.71733 15.0007 4 15C4.28267 14.9993 4.52033 15.0953 4.713 15.288C4.90567 15.4807 5.00133 15.718 5 16V17.6L7.4 15.2C7.58333 15.0167 7.81667 14.925 8.1 14.925C8.38333 14.925 8.61667 15.0167 8.8 15.2C8.98333 15.3833 9.075 15.6167 9.075 15.9C9.075 16.1833 8.98333 16.4167 8.8 16.6L6.4 19ZM19 6.4L16.6 8.8C16.4167 8.98333 16.1833 9.075 15.9 9.075C15.6167 9.075 15.3833 8.98333 15.2 8.8C15.0167 8.61667 14.925 8.38333 14.925 8.1C14.925 7.81667 15.0167 7.58333 15.2 7.4L17.6 5H16C15.7167 5 15.4793 4.904 15.288 4.712C15.0967 4.52 15.0007 4.28267 15 4C14.9993 3.71733 15.0953 3.48 15.288 3.288C15.4807 3.096 15.718 3 16 3H20C20.2833 3 20.521 3.096 20.713 3.288C20.905 3.48 21.0007 3.71733 21 4V8C21 8.28333 20.904 8.521 20.712 8.713C20.52 8.905 20.2827 9.00067 20 9C19.7173 8.99933 19.48 8.90333 19.288 8.712C19.096 8.52067 19 8.28333 19 8V6.4Z" fill="black"/>
</svg>
