<svg width="24" height="24" viewBox="0 0 24 24" fill="none" xmlns="http://www.w3.org/2000/svg">
<g clip-path="url(#clip0_339_734)">
<path d="M16.596 8.0465C15.751 8.083 15.0875 8.6985 15.0385 9.5425C15.016 9.9375 15 10.4205 15 11C15 11.5795 15.016 12.063 15.0385 12.4575C15.0875 13.3015 15.7515 13.9175 16.5955 13.9535C17.1905 13.98 17.985 14 19 14C20.015 14 20.81 13.9795 21.4045 13.9535C22.2485 13.917 22.9125 13.3015 22.9615 12.4575C22.984 12.0625 23 11.5795 23 11C23 10.4205 22.984 9.937 22.9615 9.5425C22.9125 8.6985 22.2485 8.0825 21.4045 8.0465C20.8095 8.02 20.015 8 19 8C17.985 8 17.19 8.0205 16.596 8.0465Z" stroke="black" stroke-width="1.5" stroke-linecap="round" stroke-linejoin="round"/>
<path d="M22.345 13.6235C22.4465 14.1985 22.5 14.79 22.5 15.3945C22.5 16.6805 22.5 22.5 12 22.5C1.5 22.5 1.5 16.681 1.5 15.395C1.5 14.254 1.6905 13.16 2.033 12.1355C2.01077 11.9244 1.99975 11.7122 2 11.5C2 8.40447 2 3.90097 3.4625 1.98647C3.7315 1.63447 4.1825 1.48847 4.6225 1.53747C6.771 1.77747 8.4415 3.13747 9.645 4.83497C10.4111 4.61663 11.2034 4.50392 12 4.49997C12.7966 4.50392 13.5889 4.61663 14.355 4.83497C15.5585 3.13747 17.229 1.77797 19.3775 1.53747C19.8175 1.48847 20.2685 1.63447 20.5375 1.98647C21.5225 3.27647 21.844 5.74047 21.949 8.15747" stroke="black" stroke-width="1.5" stroke-linecap="round" stroke-linejoin="round"/>
<path d="M4.5 11C4.5 10.4205 4.516 9.93749 4.5385 9.54249C4.5875 8.69849 5.251 8.08299 6.096 8.04649C6.69 8.02049 7.485 7.99999 8.5 7.99999C9.30174 7.99797 10.1034 8.01347 10.9045 8.04649C11.7485 8.08249 12.4125 8.69849 12.4615 9.54249C12.484 9.93699 12.5 10.4205 12.5 11M4.5 11C4.5 11.5795 4.516 12.063 4.5385 12.4575C4.5875 13.3015 5.2515 13.9175 6.096 13.9535C6.69 13.98 7.4845 14 8.5 14C9.5155 14 10.31 13.9795 10.9045 13.9535C11.7485 13.917 12.4125 13.3015 12.4615 12.4575C12.484 12.0625 12.5 11.5795 12.5 11M4.5 11H2M12.5 11H15M5.479 17.5C6.2405 18.347 7.594 19.12 10 19.3945" stroke="black" stroke-width="1.5" stroke-linecap="round" stroke-linejoin="round"/>
</g>
<defs>
<clipPath id="clip0_339_734">
<rect width="24" height="24" fill="white"/>
</clipPath>
</defs>
</svg>
