<svg width="1165" height="1169" viewBox="0 0 1165 1169" fill="none" xmlns="http://www.w3.org/2000/svg">
<g filter="url(#filter0_ding_561_1180)">
<path d="M10 10H1171V1145C1148.35 1123.13 1135.65 1124.87 1113 1103C1113 1103 1115 1119 1100 1131C1085 1143 1046 1145 1046 1145C826.525 1145 613 1103 570 1145C527 1187 451 1117 432 1131C413 1145 10 1159 10 1159V10Z" fill="#BD8146"/>
<path d="M1170 11V1142.67C1159.38 1132.75 1150.91 1127.92 1142.5 1123.13C1133.68 1118.11 1124.93 1113.13 1113.69 1102.28L1111.66 1100.31L1112.01 1103.12V1103.13C1112.01 1103.13 1112.01 1103.14 1112.01 1103.15C1112.01 1103.18 1112.02 1103.22 1112.02 1103.27C1112.03 1103.38 1112.05 1103.55 1112.06 1103.77C1112.08 1104.2 1112.1 1104.85 1112.08 1105.66C1112.03 1107.29 1111.82 1109.59 1111.16 1112.26C1109.82 1117.59 1106.67 1124.38 1099.38 1130.22C1095.76 1133.11 1090.64 1135.44 1084.92 1137.3C1079.22 1139.15 1072.99 1140.52 1067.21 1141.51C1061.42 1142.51 1056.11 1143.13 1052.23 1143.5C1050.3 1143.69 1048.72 1143.82 1047.63 1143.89C1047.09 1143.93 1046.67 1143.96 1046.38 1143.98C1046.24 1143.99 1046.13 1143.99 1046.06 1144C1046.02 1144 1045.99 1144 1045.97 1144C936.286 1144 828.115 1133.5 741.883 1128.25C698.785 1125.63 661.148 1124.31 631.585 1126.28C616.803 1127.27 604.003 1129.08 593.53 1131.98C583.068 1134.87 574.846 1138.87 569.301 1144.28C558.786 1154.55 546.259 1157.99 533.001 1157.56C519.707 1157.13 505.711 1152.81 492.365 1147.57C485.698 1144.95 479.216 1142.12 473.076 1139.44C466.945 1136.76 461.146 1134.23 455.883 1132.25C450.627 1130.28 445.844 1128.82 441.744 1128.31C437.656 1127.81 434.082 1128.22 431.407 1130.2C430.945 1130.54 430.099 1130.93 428.804 1131.36C427.53 1131.78 425.895 1132.21 423.916 1132.64C419.959 1133.51 414.687 1134.37 408.279 1135.23C395.467 1136.95 378.187 1138.64 357.966 1140.28C317.528 1143.56 265.384 1146.63 213.824 1149.25C162.267 1151.88 111.302 1154.06 73.2256 1155.59C54.1877 1156.36 38.3722 1156.96 27.3164 1157.37C21.7888 1157.58 17.451 1157.73 14.4951 1157.84C13.0172 1157.89 11.884 1157.93 11.1211 1157.96C11.0796 1157.96 11.0393 1157.96 11 1157.96V11H1170Z" stroke="black" stroke-width="2"/>
</g>
<defs>
<filter id="filter0_ding_561_1180" x="0" y="0" width="1181" height="1169" filterUnits="userSpaceOnUse" color-interpolation-filters="sRGB">
<feFlood flood-opacity="0" result="BackgroundImageFix"/>
<feColorMatrix in="SourceAlpha" type="matrix" values="0 0 0 0 0 0 0 0 0 0 0 0 0 0 0 0 0 0 127 0" result="hardAlpha"/>
<feOffset dy="2"/>
<feGaussianBlur stdDeviation="2"/>
<feComposite in2="hardAlpha" operator="out"/>
<feColorMatrix type="matrix" values="0 0 0 0 0 0 0 0 0 0 0 0 0 0 0 0 0 0 1 0"/>
<feBlend mode="normal" in2="BackgroundImageFix" result="effect1_dropShadow_561_1180"/>
<feBlend mode="normal" in="SourceGraphic" in2="BackgroundImageFix" result="shape"/>
<feColorMatrix in="SourceAlpha" type="matrix" values="0 0 0 0 0 0 0 0 0 0 0 0 0 0 0 0 0 0 127 0" result="hardAlpha"/>
<feOffset dx="-16" dy="-6"/>
<feGaussianBlur stdDeviation="5"/>
<feComposite in2="hardAlpha" operator="arithmetic" k2="-1" k3="1"/>
<feColorMatrix type="matrix" values="0 0 0 0 0 0 0 0 0 0 0 0 0 0 0 0 0 0 0.25 0"/>
<feBlend mode="normal" in2="shape" result="effect2_innerShadow_561_1180"/>
<feTurbulence type="fractalNoise" baseFrequency="0.5 0.5" stitchTiles="stitch" numOctaves="3" result="noise" seed="9083" />
<feColorMatrix in="noise" type="luminanceToAlpha" result="alphaNoise" />
<feComponentTransfer in="alphaNoise" result="coloredNoise1">
<feFuncA type="discrete" tableValues="0 0 0 0 0 0 0 0 0 0 0 0 1 1 1 1 1 1 1 1 1 1 1 1 1 1 1 1 1 1 1 1 1 1 1 1 1 1 0 0 0 0 0 0 0 0 0 0 0 0 0 0 0 0 0 0 0 0 0 0 0 0 0 0 0 0 0 0 0 0 0 0 0 0 0 0 0 0 0 0 0 0 0 0 0 0 0 0 0 0 0 0 0 0 0 0 0 0 0 0 "/>
</feComponentTransfer>
<feComposite operator="in" in2="effect2_innerShadow_561_1180" in="coloredNoise1" result="noise1Clipped" />
<feComponentTransfer in="alphaNoise" result="coloredNoise2">
<feFuncA type="discrete" tableValues="0 0 0 0 0 0 0 0 0 0 0 0 0 0 0 0 0 0 0 0 0 0 0 0 0 0 0 0 0 0 0 0 0 0 0 0 0 0 0 0 0 0 0 0 0 0 0 0 0 0 0 0 0 0 0 0 0 0 0 0 0 0 1 1 1 1 1 1 1 1 1 1 1 1 1 1 1 1 1 1 1 1 1 1 1 1 1 1 0 0 0 0 0 0 0 0 0 0 0 0 "/>
</feComponentTransfer>
<feComposite operator="in" in2="effect2_innerShadow_561_1180" in="coloredNoise2" result="noise2Clipped" />
<feFlood flood-color="#A14C00" result="color1Flood" />
<feComposite operator="in" in2="noise1Clipped" in="color1Flood" result="color1" />
<feFlood flood-color="rgba(181, 126, 74, 0.5)" result="color2Flood" />
<feComposite operator="in" in2="noise2Clipped" in="color2Flood" result="color2" />
<feMerge result="effect3_noise_561_1180">
<feMergeNode in="effect2_innerShadow_561_1180" />
<feMergeNode in="color1" />
<feMergeNode in="color2" />
</feMerge>
<feBlend mode="normal" in="effect3_noise_561_1180" in2="effect1_dropShadow_561_1180" result="effect3_noise_561_1180"/>
<feTurbulence type="fractalNoise" baseFrequency="0.060606062412261963 0.060606062412261963" numOctaves="3" seed="2917" />
<feDisplacementMap in="effect3_noise_561_1180" scale="20" xChannelSelector="R" yChannelSelector="G" result="displacedImage" width="100%" height="100%" />
<feMerge result="effect4_texture_561_1180">
<feMergeNode in="displacedImage"/>
</feMerge>
</filter>
</defs>
</svg>
