<svg width="24" height="24" viewBox="0 0 24 24" fill="none" xmlns="http://www.w3.org/2000/svg">
<path d="M9.49951 15.9995C7.68285 15.9995 6.14551 15.3702 4.88751 14.1115C3.62951 12.8528 3.00018 11.3155 2.99951 9.49951C2.99885 7.68351 3.62818 6.14618 4.88751 4.88751C6.14685 3.62885 7.68418 2.99951 9.49951 2.99951C11.3148 2.99951 12.8525 3.62885 14.1125 4.88751C15.3725 6.14618 16.0015 7.68351 15.9995 9.49951C15.9995 10.2328 15.8828 10.9245 15.6495 11.5745C15.4162 12.2245 15.0995 12.7995 14.6995 13.2995L20.2995 18.8995C20.4828 19.0828 20.5745 19.3162 20.5745 19.5995C20.5745 19.8828 20.4828 20.1162 20.2995 20.2995C20.1162 20.4828 19.8828 20.5745 19.5995 20.5745C19.3162 20.5745 19.0828 20.4828 18.8995 20.2995L13.2995 14.6995C12.7995 15.0995 12.2245 15.4162 11.5745 15.6495C10.9245 15.8828 10.2328 15.9995 9.49951 15.9995ZM9.49951 13.9995C10.7495 13.9995 11.8122 13.5622 12.6875 12.6875C13.5628 11.8128 14.0002 10.7502 13.9995 9.49951C13.9988 8.24884 13.5615 7.18651 12.6875 6.31251C11.8135 5.43851 10.7508 5.00084 9.49951 4.99951C8.24818 4.99818 7.18585 5.43584 6.31251 6.31251C5.43918 7.18918 5.00151 8.25151 4.99951 9.49951C4.99751 10.7475 5.43518 11.8102 6.31251 12.6875C7.18985 13.5648 8.25218 14.0022 9.49951 13.9995Z" fill="white"/>
</svg>
