<svg width="24" height="19" viewBox="0 0 24 19" fill="none" xmlns="http://www.w3.org/2000/svg">
<path d="M11.2002 0.100677C11.5298 -0.146194 12 0.0891619 12 0.501068V18.5011C11.9999 18.9129 11.5298 19.1482 11.2002 18.9015L4 13.5011H1C0.447738 13.5011 3.722e-05 13.0533 0 12.5011V6.50107C0 5.94878 0.447715 5.50107 1 5.50107H4L11.2002 0.100677ZM17.6338 1.20712C17.9099 0.72883 18.5217 0.56477 19 0.840912C20.5201 1.71859 21.7825 2.98092 22.6602 4.50107C23.5378 6.02125 24 7.74572 24 9.50107C24 11.2564 23.5378 12.9809 22.6602 14.5011C21.7825 16.0212 20.5201 17.2836 19 18.1612C18.5217 18.4373 17.9099 18.2733 17.6338 17.795C17.3579 17.3168 17.5218 16.7049 18 16.4288C19.216 15.7267 20.2256 14.717 20.9277 13.5011C21.6299 12.2849 22 10.9053 22 9.50107C22 8.0968 21.6299 6.71721 20.9277 5.50107C20.2256 4.28508 19.216 3.27544 18 2.57333C17.5218 2.29726 17.3579 1.68536 17.6338 1.20712ZM15.6338 4.67099C15.9099 4.19272 16.5217 4.02868 17 4.30478C17.9121 4.83139 18.6697 5.58896 19.1963 6.50107C19.7229 7.41316 20 8.44789 20 9.50107C20 10.5542 19.7229 11.589 19.1963 12.5011C18.6697 13.4132 17.9121 14.1708 17 14.6974C16.5217 14.9734 15.9099 14.8094 15.6338 14.3311C15.3577 13.8529 15.5218 13.2411 16 12.9649C16.608 12.6139 17.1128 12.109 17.4639 11.5011C17.8149 10.893 18 10.2032 18 9.50107C18 8.79894 17.8149 8.10913 17.4639 7.50107C17.1128 6.89308 16.608 6.38825 16 6.0372C15.5218 5.76109 15.3578 5.14926 15.6338 4.67099Z" fill="black"/>
</svg>
